<svg width="100" height="136" viewBox="0 0 100 136" fill="none" xmlns="http://www.w3.org/2000/svg">
<path fill-rule="evenodd" clip-rule="evenodd" d="M15.1043 112.739L49.601 87.4001L29.9076 58.9301C29.9076 58.9301 26.4035 56.7737 19.3951 52.4609C8.2469 60.5712 1 73.7198 1 88.5609C1 95.2684 2.48023 101.63 5.13185 107.337C11.7801 110.939 15.1043 112.739 15.1043 112.739Z" fill="url(#paint0_linear_1230_2655)"/>
<path fill-rule="evenodd" clip-rule="evenodd" d="M19.395 52.4609C26.4033 56.7737 29.9075 58.9301 29.9075 58.9301L49.6009 87.4001L40.5893 80.4374L19.2129 52.5944L19.395 52.4609Z" fill="#B21F24"/>
<path fill-rule="evenodd" clip-rule="evenodd" d="M40.5894 80.4373L49.601 87.4L14.8524 112.603C13.9637 112.121 10.7235 110.366 5.13184 107.337L40.5894 80.4373Z" fill="#D22027"/>
<path fill-rule="evenodd" clip-rule="evenodd" d="M49.6008 87.4001C49.6008 87.4001 57.2483 73.3415 72.5432 45.2243C68.6181 43.7536 64.3673 42.9493 59.9287 42.9493C47.4852 42.9493 36.5181 49.2703 30.063 58.8764C43.0882 77.8922 49.6008 87.4001 49.6008 87.4001Z" fill="url(#paint1_linear_1230_2655)"/>
<path fill-rule="evenodd" clip-rule="evenodd" d="M35.6454 131.055C53.6393 141.444 78.6231 131.858 91.4483 109.644C104.273 87.4301 100.083 61.0004 82.0893 50.6116C81.419 50.2246 80.739 49.8654 80.0504 49.5334C64.6336 77.8852 56.9253 92.0611 56.9253 92.0611C56.9253 92.0611 45.5313 100.332 22.7434 116.873C25.5698 122.794 29.9053 127.741 35.6454 131.055Z" fill="url(#paint2_linear_1230_2655)"/>
<path fill-rule="evenodd" clip-rule="evenodd" d="M28.3212 126.394C46.3151 136.783 71.2989 127.197 84.1241 104.983C96.9492 82.769 92.759 56.3394 74.7651 45.9506C74.0948 45.5636 73.4148 45.2044 72.7261 44.8724C57.3094 73.2242 49.6011 87.4001 49.6011 87.4001C49.6011 87.4001 38.2071 95.6708 15.4192 112.212C18.2456 118.133 22.581 123.08 28.3212 126.394Z" fill="url(#paint3_linear_1230_2655)"/>
<path d="M61.9266 1H48.6094V14.3173H61.9266V1Z" fill="#F6ADCD"/>
<path fill-rule="evenodd" clip-rule="evenodd" d="M48.6094 1L61.9266 14.3173H48.6094V1Z" fill="#A64686"/>
<path d="M26.303 11.6538H10.3223V27.6345H26.303V11.6538Z" fill="#F48466"/>
<path fill-rule="evenodd" clip-rule="evenodd" d="M10.3223 11.6538L26.303 27.6345H10.3223V11.6538Z" fill="#A25742"/>
<path d="M38.6207 38.6212H23.9717V53.2702H38.6207V38.6212Z" fill="#F6ADCD"/>
<path fill-rule="evenodd" clip-rule="evenodd" d="M23.9717 38.6212L38.6207 53.2702H23.9717V38.6212Z" fill="#A64686"/>
<path d="M60.2618 49.275H52.2715V57.2654H60.2618V49.275Z" fill="#7FB841"/>
<path fill-rule="evenodd" clip-rule="evenodd" d="M52.2715 49.275H60.2618V57.2654L52.2715 49.275Z" fill="#316D3E"/>
<path d="M79.2385 53.2702H69.5835V62.9252H79.2385V53.2702Z" fill="#54C5D0"/>
<path fill-rule="evenodd" clip-rule="evenodd" d="M69.5835 53.2702H79.2385V62.9252L69.5835 53.2702Z" fill="#46A6AF"/>
<path d="M75.5763 28.3004H63.2578V40.6188H75.5763V28.3004Z" fill="#8DD8F8"/>
<path fill-rule="evenodd" clip-rule="evenodd" d="M63.2578 28.3004L75.5763 40.6188H63.2578V28.3004Z" fill="#0095DA"/>
<path d="M52.6035 23.3064H43.9473V31.9626H52.6035V23.3064Z" fill="#F5821F"/>
<path fill-rule="evenodd" clip-rule="evenodd" d="M43.9473 23.3064L52.6035 31.9626H43.9473V23.3064Z" fill="#ED1C24"/>
<defs>
<linearGradient id="paint0_linear_1230_2655" x1="18.0207" y1="56.3256" x2="38.5741" y2="78.3126" gradientUnits="userSpaceOnUse">
<stop stop-color="#D32429"/>
<stop offset="1" stop-color="#EC5455"/>
</linearGradient>
<linearGradient id="paint1_linear_1230_2655" x1="51.3031" y1="87.4001" x2="51.3031" y2="42.9493" gradientUnits="userSpaceOnUse">
<stop stop-color="#86D3E3"/>
<stop offset="1" stop-color="#2D67B2"/>
</linearGradient>
<linearGradient id="paint2_linear_1230_2655" x1="88.0028" y1="68.6749" x2="40.2149" y2="127.133" gradientUnits="userSpaceOnUse">
<stop offset="0.140249" stop-color="#DE9927"/>
<stop offset="0.525382" stop-color="#F0EB31"/>
<stop offset="0.863585" stop-color="#DE9927"/>
</linearGradient>
<linearGradient id="paint3_linear_1230_2655" x1="58.5833" y1="99.6587" x2="53.1156" y2="94.41" gradientUnits="userSpaceOnUse">
<stop stop-color="#F0EB31"/>
<stop offset="1" stop-color="#F7B61B"/>
</linearGradient>
</defs>
</svg>
